<svg width="14" height="14" viewBox="0 0 14 14" fill="none" xmlns="http://www.w3.org/2000/svg">
<path d="M13.6669 10.28V12.28C13.6677 12.4657 13.6297 12.6494 13.5553 12.8196C13.4809 12.9897 13.3718 13.1424 13.235 13.2679C13.0982 13.3934 12.9367 13.489 12.7608 13.5485C12.5849 13.608 12.3985 13.63 12.2136 13.6133C10.1622 13.3904 8.19161 12.6894 6.46028 11.5667C4.8495 10.5431 3.48384 9.17745 2.46028 7.56667C1.3336 5.82747 0.632443 3.84733 0.413614 1.78667C0.396955 1.60231 0.418864 1.41651 0.477948 1.24108C0.537032 1.06566 0.631995 0.904458 0.756792 0.767746C0.881588 0.631034 1.03348 0.521805 1.20281 0.447013C1.37213 0.372222 1.55517 0.333506 1.74028 0.333332H3.74028C4.06382 0.330148 4.37748 0.444718 4.62279 0.655687C4.8681 0.866656 5.02833 1.15963 5.07361 1.48C5.15803 2.12004 5.31458 2.74848 5.54028 3.35333C5.62998 3.59195 5.64939 3.85127 5.59622 4.10059C5.54305 4.3499 5.41952 4.57874 5.24028 4.76L4.39361 5.60667C5.34265 7.2757 6.72458 8.65763 8.39361 9.60667L9.24028 8.76C9.42154 8.58076 9.65038 8.45723 9.89969 8.40406C10.149 8.35089 10.4083 8.3703 10.6469 8.46C11.2518 8.6857 11.8802 8.84225 12.5203 8.92667C12.8441 8.97235 13.1399 9.13547 13.3513 9.385C13.5627 9.63452 13.6751 9.95305 13.6669 10.28Z" fill="#7E7E7E"/>
</svg>
