<svg width="24" height="22" viewBox="0 0 24 22" fill="none" xmlns="http://www.w3.org/2000/svg">
<path d="M19.6222 1.24L17.7233 11.0355C17.4612 12.3814 16.7624 13.5913 15.7452 14.4602C14.728 15.3291 13.4549 15.8038 12.1415 15.8038C10.828 15.8038 9.55496 15.3291 8.53775 14.4602C7.52055 13.5913 6.82173 12.3814 6.55959 11.0355L4.66076 1.24C4.63133 1.08964 4.6343 0.934308 4.66948 0.785304C4.70465 0.636299 4.77113 0.497365 4.8641 0.378605C4.95706 0.259846 5.07417 0.164246 5.20689 0.0987571C5.33962 0.0332686 5.48464 -0.000461845 5.6314 1.8583e-05H18.6487C18.7957 -0.000903526 18.941 0.0325023 19.0741 0.0977992C19.2072 0.163096 19.3247 0.258637 19.4179 0.377452C19.5112 0.496267 19.578 0.635359 19.6133 0.784581C19.6486 0.933803 19.6516 1.08939 19.6222 1.24ZM16.5093 19.9225H13.1362V17.8125C12.4792 17.9112 11.8122 17.9112 11.1553 17.8125V19.9284H7.78491C7.52223 19.9284 7.27031 20.0376 7.08456 20.2318C6.89882 20.4261 6.79447 20.6895 6.79447 20.9642C6.79447 21.2389 6.89882 21.5024 7.08456 21.6966C7.27031 21.8909 7.52223 22 7.78491 22H16.498C16.7607 22 17.0126 21.8909 17.1984 21.6966C17.3841 21.5024 17.4885 21.2389 17.4885 20.9642C17.4885 20.6895 17.3841 20.4261 17.1984 20.2318C17.0126 20.0376 16.7607 19.9284 16.498 19.9284L16.5093 19.9225ZM3.93632 7.93114C2.89632 6.68152 2.23621 5.136 2.04032 3.49208H3.07605L2.71949 1.64839C2.71949 1.57145 2.69685 1.49746 2.68836 1.42052H0.990451C0.860278 1.42013 0.731317 1.44665 0.610982 1.49857C0.490647 1.55048 0.381312 1.62676 0.289266 1.72302C0.19722 1.81928 0.124279 1.93362 0.0746366 2.05946C0.0249943 2.1853 -0.000369457 2.32017 4.06625e-06 2.4563C3.224e-05 4.20004 0.418752 5.91586 1.21775 7.44637C2.01676 8.97687 3.17046 10.2731 4.57304 11.216L3.93632 7.93114ZM23.018 1.42052H21.6031C21.6031 1.49746 21.5861 1.57145 21.5719 1.64839L21.2154 3.49208H21.9766C21.8017 4.92995 21.2721 6.29551 20.44 7.45468L19.7552 11.0059C21.0662 10.0458 22.1365 8.76931 22.8754 7.28461C23.6144 5.79991 24.0001 4.15078 23.9999 2.47701C24.0014 2.34089 23.9772 2.20579 23.9286 2.0795C23.88 1.95321 23.808 1.83822 23.7167 1.74113C23.6254 1.64405 23.5167 1.56679 23.3968 1.5138C23.2769 1.4608 23.1482 1.43313 23.018 1.43236V1.42052Z" fill="#FFD600"/>
</svg>
