<svg width="24" height="29" viewBox="0 0 24 29" fill="none" xmlns="http://www.w3.org/2000/svg">
<path d="M7.87101 14.0701L9.90038 18.9009L14.6362 20.971C14.8655 21.07 14.9725 21.3418 14.8746 21.5757C14.8274 21.6894 14.7395 21.7745 14.6362 21.8189L9.90038 23.889L7.87101 28.7198C7.77402 28.9537 7.50755 29.0628 7.27824 28.963C7.16675 28.9149 7.08337 28.8252 7.03986 28.7198L5.01049 23.889L0.274676 21.8189C0.0453628 21.7199 -0.0615895 21.4481 0.0362991 21.2142C0.0834306 21.1005 0.171349 21.0154 0.274676 20.971L5.01049 18.9009L7.03986 14.0701C7.13684 13.8362 7.40332 13.7271 7.63263 13.8269C7.74411 13.875 7.8275 13.9647 7.87101 14.0701ZM20.0636 15.677L21.1621 18.2926L23.7253 19.4131C23.9546 19.5121 24.0616 19.7839 23.9637 20.0178C23.9166 20.1315 23.8287 20.2166 23.7253 20.261L21.1621 21.3815L20.0636 23.9971C19.9666 24.231 19.7001 24.3401 19.4708 24.2403C19.3593 24.1922 19.2759 24.1025 19.2324 23.9971L18.1339 21.3815L15.5698 20.261C15.3404 20.162 15.2335 19.8902 15.3314 19.6563C15.3785 19.5426 15.4664 19.4575 15.5698 19.4131L18.1339 18.2926L19.2324 15.677C19.3294 15.4431 19.5959 15.334 19.8252 15.4338C19.9367 15.4819 20.0201 15.5716 20.0636 15.677ZM14.8755 0.280188L17.4487 6.40543L23.4534 9.03027C23.6827 9.1292 23.7897 9.40102 23.6918 9.63494C23.6447 9.74866 23.5567 9.83372 23.4534 9.8781L17.4487 12.5029L14.8755 18.6282C14.7785 18.8621 14.512 18.9712 14.2827 18.8713C14.1712 18.8233 14.0878 18.7336 14.0443 18.6282L11.4711 12.5029L5.46639 9.8781C5.23708 9.77917 5.13013 9.50735 5.22802 9.27343C5.27515 9.15971 5.36307 9.07465 5.46639 9.03027L11.4711 6.40543L14.0443 0.280188C14.1413 0.0462732 14.4078 -0.0628255 14.6371 0.0370276C14.7486 0.0851049 14.832 0.174788 14.8755 0.280188Z" fill="#FFD600"/>
</svg>
