<svg width="24" height="24" viewBox="0 0 24 24" fill="none" xmlns="http://www.w3.org/2000/svg">
<path d="M19.4949 13.0713C23.1589 8.69979 24.0939 2.61004 23.9928 0.765435C23.9928 0.563285 23.8917 0.386405 23.7654 0.234793C23.639 0.10845 23.4621 0.00737564 23.2347 0.00737564C21.3901 -0.0936989 15.3003 0.815972 10.9541 4.47992L9.94331 4.10089C8.17449 3.44391 6.17826 3.97455 4.96535 5.41486L2.16051 8.72505C1.75621 9.17989 1.95836 9.91268 2.53954 10.1148L5.54653 11.2266C4.88954 12.3385 4.43471 13.2734 4.13148 13.9304C3.87879 14.461 4.00514 15.0927 4.43471 15.5223L8.47772 19.5906C8.88202 19.9949 9.51374 20.1212 10.0697 19.8685C10.7266 19.5653 11.6616 19.1105 12.7734 18.4535L13.86 21.4604C14.0621 22.0416 14.7949 22.2185 15.2498 21.8395L18.5347 19.0347C19.975 17.8218 20.5057 15.8255 19.8487 14.0567L19.4949 13.0713ZM17.5998 9.91268C16.6396 10.8729 15.0729 10.8729 14.0874 9.91268C13.1272 8.95247 13.1272 7.38582 14.0874 6.40034C15.0476 5.44013 16.6143 5.44013 17.5998 6.40034C18.56 7.38582 18.56 8.95247 17.5998 9.91268Z" fill="#FFD600"/>
<path d="M6.73422 20.6266L4.91486 22.4207C4.5611 22.7745 4.5611 23.3809 4.91486 23.7347C5.26862 24.0884 5.87508 24.0884 6.22884 23.7347L8.0482 21.9153C8.40196 21.5616 8.40196 20.9551 8.0482 20.6014C7.66916 20.2476 7.08798 20.2476 6.73422 20.6266Z" fill="#FFD600"/>
<path d="M5.69807 18.302C5.34431 17.9482 4.73785 17.9482 4.38409 18.302L1.50344 21.2079C1.14968 21.5616 1.14968 22.1681 1.50344 22.5218C1.85721 22.8756 2.46366 22.8756 2.81742 22.5218L5.69807 19.5907C6.0771 19.2369 6.0771 18.6557 5.69807 18.302Z" fill="#FFD600"/>
<path d="M3.39866 17.291C3.75242 16.9373 3.75242 16.3308 3.39866 15.9771C3.0449 15.6233 2.43844 15.6233 2.08468 15.9771L0.265323 17.7964C-0.088441 18.1502 -0.088441 18.7566 0.265323 19.1104C0.619087 19.4641 1.22554 19.4641 1.5793 19.1104L3.39866 17.291Z" fill="#FFD600"/>
</svg>
