<svg width="0" height="0" class="hidden">

 
  	  <symbol width="32" height="32" viewBox="0 0 32 32" xmlns="http://www.w3.org/2000/svg" id="whatsapp">
				<path fill-rule="evenodd" clip-rule="evenodd" d="M23.331 19.1762C22.9329 18.9779 20.9755 18.0194 20.6106 17.8872C20.2457 17.755 19.9803 17.6889 19.7149 18.0855C19.4495 18.4822 18.6866 19.3746 18.4543 19.639C18.2221 19.9034 17.9899 19.9365 17.5918 19.7381C17.1936 19.5399 15.9109 19.1215 14.3903 17.7716C13.2068 16.7211 12.4078 15.4235 12.1755 15.0269C11.9433 14.6302 12.1508 14.4158 12.3501 14.2183C12.5292 14.0408 12.7482 13.7556 12.9473 13.5242C13.1463 13.2928 13.2127 13.1275 13.3454 12.8631C13.4781 12.5987 13.4117 12.3673 13.3122 12.169C13.2127 11.9707 12.4165 10.0205 12.0847 9.22721C11.7616 8.45464 11.4334 8.55917 11.189 8.54706C10.957 8.53555 10.6914 8.53312 10.426 8.53312C10.1606 8.53312 9.7293 8.63232 9.36432 9.02889C8.99942 9.42553 7.97098 10.3842 7.97098 12.3342C7.97098 14.2844 9.39754 16.1684 9.5966 16.4329C9.79566 16.6973 12.4039 20.6993 16.3975 22.4155C17.3473 22.8237 18.0889 23.0674 18.667 23.2501C19.6208 23.5516 20.4887 23.5091 21.1746 23.4071C21.9395 23.2933 23.53 22.4485 23.8618 21.523C24.1935 20.5976 24.1935 19.8043 24.094 19.639C23.9945 19.4738 23.7291 19.3746 23.331 19.1762ZM16.0669 29.047H16.0616C13.6852 29.046 11.3545 28.4108 9.32131 27.2099L8.8377 26.9242L3.82553 28.2328L5.16339 23.3694L4.84846 22.8708C3.52285 20.7723 2.82273 18.347 2.82373 15.8567C2.82663 8.59003 8.76744 2.67808 16.0722 2.67808C19.6094 2.67945 22.9344 4.05216 25.4347 6.54327C27.935 9.03445 29.3112 12.3458 29.3098 15.8674C29.3068 23.1346 23.3661 29.047 16.0669 29.047ZM27.3377 4.65033C24.3295 1.65309 20.329 0.00167618 16.0668 0C7.28471 0 0.137146 7.11286 0.133625 15.8557C0.132477 18.6505 0.866114 21.3785 2.26038 23.7831L0 32L8.44639 29.7951C10.7736 31.0583 13.3937 31.724 16.0604 31.7251H16.0669C24.8481 31.7251 31.9964 24.6113 32 15.8684C32.0016 11.6315 30.3459 7.64749 27.3377 4.65033Z"/>
			</symbol>

					
			<symbol width="32" height="26" viewBox="0 0 32 26" xmlns="http://www.w3.org/2000/svg" id="telegram">
				<path d="M0.483311 12.094C3.75701 10.325 7.41133 8.84846 10.8257 7.36443C16.6999 4.93372 22.5973 2.54513 28.5543 0.321382C29.7133 -0.0575 31.7958 -0.42798 32 1.25699C31.8881 3.64215 31.4282 6.01333 31.1127 8.38452C30.3119 13.599 29.3864 18.7956 28.4838 23.9929C28.1728 25.7241 25.9623 26.6203 24.5478 25.5124C21.1486 23.2599 17.7232 21.0292 14.3673 18.7244C13.268 17.6286 14.2874 16.0549 15.2692 15.2723C18.0689 12.5655 21.0381 10.2657 23.6915 7.41904C24.4072 5.72344 22.2924 7.15243 21.5948 7.59032C17.762 10.1815 14.0229 12.9309 9.98193 15.2083C7.91779 16.323 5.51199 15.3704 3.44878 14.7484C1.59888 13.997 -1.11195 13.2399 0.483125 12.0942L0.483311 12.094Z"/>
			</symbol>
  



    
    



</svg>