<svg width="0" height="0" class="hidden">

 
  	  <symbol width="32" height="32" viewBox="0 0 32 32" xmlns="http://www.w3.org/2000/svg" id="whatsapp">
				<path fill-rule="evenodd" clip-rule="evenodd" d="M23.331 19.1762C22.9329 18.9779 20.9755 18.0194 20.6106 17.8872C20.2457 17.755 19.9803 17.6889 19.7149 18.0855C19.4495 18.4822 18.6866 19.3746 18.4543 19.639C18.2221 19.9034 17.9899 19.9365 17.5918 19.7381C17.1936 19.5399 15.9109 19.1215 14.3903 17.7716C13.2068 16.7211 12.4078 15.4235 12.1755 15.0269C11.9433 14.6302 12.1508 14.4158 12.3501 14.2183C12.5292 14.0408 12.7482 13.7556 12.9473 13.5242C13.1463 13.2928 13.2127 13.1275 13.3454 12.8631C13.4781 12.5987 13.4117 12.3673 13.3122 12.169C13.2127 11.9707 12.4165 10.0205 12.0847 9.22721C11.7616 8.45464 11.4334 8.55917 11.189 8.54706C10.957 8.53555 10.6914 8.53312 10.426 8.53312C10.1606 8.53312 9.7293 8.63232 9.36432 9.02889C8.99942 9.42553 7.97098 10.3842 7.97098 12.3342C7.97098 14.2844 9.39754 16.1684 9.5966 16.4329C9.79566 16.6973 12.4039 20.6993 16.3975 22.4155C17.3473 22.8237 18.0889 23.0674 18.667 23.2501C19.6208 23.5516 20.4887 23.5091 21.1746 23.4071C21.9395 23.2933 23.53 22.4485 23.8618 21.523C24.1935 20.5976 24.1935 19.8043 24.094 19.639C23.9945 19.4738 23.7291 19.3746 23.331 19.1762ZM16.0669 29.047H16.0616C13.6852 29.046 11.3545 28.4108 9.32131 27.2099L8.8377 26.9242L3.82553 28.2328L5.16339 23.3694L4.84846 22.8708C3.52285 20.7723 2.82273 18.347 2.82373 15.8567C2.82663 8.59003 8.76744 2.67808 16.0722 2.67808C19.6094 2.67945 22.9344 4.05216 25.4347 6.54327C27.935 9.03445 29.3112 12.3458 29.3098 15.8674C29.3068 23.1346 23.3661 29.047 16.0669 29.047ZM27.3377 4.65033C24.3295 1.65309 20.329 0.00167618 16.0668 0C7.28471 0 0.137146 7.11286 0.133625 15.8557C0.132477 18.6505 0.866114 21.3785 2.26038 23.7831L0 32L8.44639 29.7951C10.7736 31.0583 13.3937 31.724 16.0604 31.7251H16.0669C24.8481 31.7251 31.9964 24.6113 32 15.8684C32.0016 11.6315 30.3459 7.64749 27.3377 4.65033Z"/>
			</symbol>
					
			<symbol width="32" height="26" viewBox="0 0 32 26" xmlns="http://www.w3.org/2000/svg" id="telegram">
				<path d="M0.483311 12.094C3.75701 10.325 7.41133 8.84846 10.8257 7.36443C16.6999 4.93372 22.5973 2.54513 28.5543 0.321382C29.7133 -0.0575 31.7958 -0.42798 32 1.25699C31.8881 3.64215 31.4282 6.01333 31.1127 8.38452C30.3119 13.599 29.3864 18.7956 28.4838 23.9929C28.1728 25.7241 25.9623 26.6203 24.5478 25.5124C21.1486 23.2599 17.7232 21.0292 14.3673 18.7244C13.268 17.6286 14.2874 16.0549 15.2692 15.2723C18.0689 12.5655 21.0381 10.2657 23.6915 7.41904C24.4072 5.72344 22.2924 7.15243 21.5948 7.59032C17.762 10.1815 14.0229 12.9309 9.98193 15.2083C7.91779 16.323 5.51199 15.3704 3.44878 14.7484C1.59888 13.997 -1.11195 13.2399 0.483125 12.0942L0.483311 12.094Z"/>
			</symbol>
      
      <symbol width="38" height="38" viewBox="0 0 38 38" fill="none" xmlns="http://www.w3.org/2000/svg" id="order">
        <path d="M35 24.3333C35 25.2763 34.6254 26.1807 33.9586 26.8475C33.2918 27.5143 32.3874 27.8889 31.4444 27.8889H10.1111L3 35V6.55556C3 5.61256 3.3746 4.70819 4.0414 4.0414C4.70819 3.3746 5.61256 3 6.55556 3H31.4444C32.3874 3 33.2918 3.3746 33.9586 4.0414C34.6254 4.70819 35 5.61256 35 6.55556V24.3333Z" stroke="white" stroke-width="5" stroke-linecap="round" stroke-linejoin="round"/>
      </symbol>

      <symbol width="30" height="38" viewBox="0 0 30 38" fill="none" xmlns="http://www.w3.org/2000/svg" id="rouble">
        <path d="M8.50184 19.8421V35M8.50184 19.8421C23.6894 19.8421 27.0384 18.1334 26.9997 11.4211C26.9609 4.70869 21.2066 3 8.50184 3V19.8421ZM8.50184 19.8421H3M3 29.5928L13.4536 29.5928" stroke="white" stroke-width="5" stroke-linecap="round" stroke-linejoin="round"/>
      </symbol>

      <symbol width="25" height="24" viewBox="0 0 25 24" xmlns="http://www.w3.org/2000/svg" id="whatsapp2">
        <path fill-rule="evenodd" clip-rule="evenodd" d="M17.5295 14.3822C17.2309 14.2334 15.7629 13.5145 15.4892 13.4154C15.2155 13.3162 15.0165 13.2666 14.8174 13.5641C14.6184 13.8616 14.0462 14.5309 13.872 14.7293C13.6978 14.9275 13.5237 14.9524 13.2251 14.8036C12.9265 14.6549 11.9644 14.3411 10.8239 13.3287C9.93633 12.5408 9.33708 11.5676 9.16288 11.2701C8.98873 10.9727 9.14434 10.8119 9.29386 10.6637C9.42812 10.5306 9.59239 10.3167 9.74169 10.1431C9.89098 9.96958 9.94075 9.84564 10.0403 9.64736C10.1398 9.44902 10.09 9.27547 10.0154 9.12673C9.94075 8.97799 9.34363 7.51537 9.0948 6.92041C8.85246 6.34098 8.60628 6.41938 8.423 6.4103C8.24902 6.40167 8.04979 6.39984 7.85073 6.39984C7.65167 6.39984 7.32823 6.47424 7.05449 6.77166C6.78081 7.06915 6.00948 7.78811 6.00948 9.25068C6.00948 10.7133 7.0794 12.1263 7.2287 12.3247C7.37799 12.523 9.33415 15.5245 12.3294 16.8116C13.0417 17.1178 13.5979 17.3006 14.0315 17.4376C14.7468 17.6637 15.3977 17.6318 15.9122 17.5553C16.4859 17.47 17.6788 16.8364 17.9276 16.1423C18.1764 15.4482 18.1764 14.8532 18.1018 14.7293C18.0271 14.6053 17.8281 14.5309 17.5295 14.3822ZM12.0814 21.7852H12.0774C10.2952 21.7845 8.54715 21.3081 7.02223 20.4075L6.65952 20.1932L2.9004 21.1746L3.90379 17.527L3.6676 17.1531C2.67339 15.5793 2.1483 13.7602 2.14904 11.8925C2.15123 6.44253 6.60683 2.00856 12.0854 2.00856C14.7383 2.00959 17.232 3.03912 19.1073 4.90745C20.9825 6.77584 22.0146 9.25936 22.0136 11.9005C22.0114 17.351 17.5558 21.7852 12.0814 21.7852ZM20.5345 3.48775C18.2784 1.23982 15.278 0.00125713 12.0813 0C5.49478 0 0.134109 5.33465 0.131469 11.8918C0.130608 13.9878 0.680836 16.0339 1.72653 17.8373L0.03125 24L6.36604 22.3463C8.11144 23.2937 10.0766 23.793 12.0766 23.7938H12.0814C18.6674 23.7938 24.0286 18.4585 24.0312 11.9013C24.0325 8.7236 22.7907 5.73562 20.5345 3.48775Z" fill="white"/>
      </symbol>
      
      <symbol width="25" height="20" viewBox="0 0 25 20" xmlns="http://www.w3.org/2000/svg" id="telegram2">
        <path d="M0.455013 9.31282C2.91029 7.97109 5.65103 6.85121 8.21184 5.72563C12.6174 3.88202 17.0405 2.07037 21.5083 0.38374C22.3775 0.0963726 23.9394 -0.184622 24.0925 1.09336C24.0086 2.90241 23.6637 4.70087 23.4271 6.49933C22.8265 10.4543 22.1323 14.3957 21.4554 18.3377C21.2221 19.6508 19.5642 20.3305 18.5034 19.4902C15.9539 17.7817 13.3849 16.0898 10.868 14.3417C10.0436 13.5106 10.8081 12.317 11.5444 11.7235C13.6442 9.67045 15.8711 7.92617 17.8611 5.76705C18.3979 4.481 16.8118 5.56483 16.2887 5.89696C13.414 7.86229 10.6097 9.94761 7.57898 11.6749C6.03087 12.5203 4.22652 11.7978 2.67911 11.3261C1.29169 10.7561 -0.741434 10.1819 0.454873 9.31299L0.455013 9.31282Z" fill="white"/>
      </symbol>
            
      <symbol width="26" height="26" viewBox="0 0 26 26" fill="none" xmlns="http://www.w3.org/2000/svg" id="clock">
        <path opacity="0.32" d="M13 5.8V13L17.8 15.4M25 13C25 19.6274 19.6274 25 13 25C6.37258 25 1 19.6274 1 13C1 6.37258 6.37258 1 13 1C19.6274 1 25 6.37258 25 13Z" stroke="#7E7E7E" stroke-width="2" stroke-linecap="round" stroke-linejoin="round"/>
      </symbol>
      
      <symbol width="42" height="49" viewBox="0 0 42 49" fill="none" xmlns="http://www.w3.org/2000/svg" id="advantages1">
        <path d="M26.2813 41.9354H19.1382C17.5667 41.9354 16.2809 43.2999 16.2809 44.9677C16.2809 46.6355 17.5667 48 19.1382 48H38.1371C40.9104 48 42.0587 44.2267 39.8068 42.5077L28.7993 34.3546V31.3223M13.288 31.3223V34.3546L2.23574 42.4755C-0.0661291 44.166 1.0607 48 3.86259 48H11.8593M11.7147 26.0157H16.4846C17.5096 26.0157 18.4561 25.432 18.965 24.4882L20.3793 21.8615C20.6544 21.3517 21.3455 21.3517 21.6205 21.8615L23.0348 24.4882C23.5437 25.4339 24.4902 26.0157 25.5153 26.0157H30.2869M23.1437 14.2485C25.6991 13.2876 27.5171 10.6684 27.426 7.6039C27.3224 4.0542 24.533 1.10338 21.1883 1.00294C17.5524 0.891119 14.5719 3.98787 14.5719 7.82185C14.5719 10.7916 16.3631 13.3103 18.8578 14.2485V14.7886C18.8578 15.5675 18.3024 16.2195 17.572 16.2972L14.3612 16.6383C12.6844 16.8164 11.1664 17.7716 10.2128 19.248L5.48765 26.5786C4.18939 28.5894 5.54837 31.3223 7.84488 31.3223H16.0006C17.3917 31.3223 18.7453 30.8428 19.8578 29.9577L21.0007 29.048L22.1436 29.9577C23.2562 30.8428 24.6098 31.3223 26.0009 31.3223H34.1566C36.4549 31.3223 37.8121 28.5894 36.5138 26.5786L31.7887 19.248C30.8368 17.7716 29.3189 16.8164 27.6403 16.6383L24.4295 16.2972C23.6991 16.2195 23.1437 15.5675 23.1437 14.7886V14.2485Z" stroke="#191916" stroke-width="2" stroke-miterlimit="10" stroke-linecap="round" stroke-linejoin="round"/>
      </symbol>

      <symbol width="47" height="47" viewBox="0 0 47 47" fill="none" xmlns="http://www.w3.org/2000/svg" id="advantages2">
        <path d="M8.37705 46V37.2903H16.4918M20.918 46V29.3064H29.0328M33.459 46V19.1451H46V46M1 26.4032H9.85246C22.8693 26.4032 33.459 18.5899 33.459 8.98387H37.8852L30.5082 1L23.1311 8.98387H27.5574C27.5574 15.2784 19.45 20.5968 9.85246 20.5968" stroke="#191916" stroke-width="2" stroke-miterlimit="10" stroke-linecap="round" stroke-linejoin="round"/>
      </symbol>

      <symbol width="47" height="42" viewBox="0 0 47 42" fill="none" xmlns="http://www.w3.org/2000/svg" id="advantages3">
        <path d="M28.0218 12.4288C25.4633 10.2055 22.101 8.85728 18.4194 8.85728C10.4028 8.85728 3.90323 15.2538 3.90323 23.1432H1C1 10.9145 11.0742 1 23.5 1C35.9258 1 46 10.9145 46 23.1432H37.2903M24.0643 38.6991C20.947 41.767 15.8917 41.767 12.7726 38.6991C9.65523 35.6312 9.65523 30.6561 12.7726 27.5864C15.8917 24.5185 37.2903 12.429 37.2903 12.429C37.2903 12.429 27.1835 35.6312 24.0643 38.6991ZM22.0484 33.1435C22.0484 35.116 20.4236 36.715 18.4193 36.715C16.4151 36.715 14.7903 35.116 14.7903 33.1435C14.7903 31.171 16.4151 29.572 18.4193 29.572C20.4236 29.572 22.0484 31.171 22.0484 33.1435Z" stroke="#191916" stroke-width="2" stroke-miterlimit="10" stroke-linecap="round" stroke-linejoin="round"/>
      </symbol>

      <symbol width="47" height="46" viewBox="0 0 47 46" fill="none" xmlns="http://www.w3.org/2000/svg" id="advantages4">
        <path d="M4.62904 37.1937H6.29295C6.63045 37.1937 6.96432 37.27 7.26734 37.419L8.25807 37.9034M18.4194 20.1614H13.8196C13.0302 20.1614 12.2554 20.3707 11.5786 20.7682L9.67339 21.8859C9.22158 22.1503 8.70625 22.2904 8.18004 22.2904H4.62904M1 20.1614H3.17742C3.97581 20.1614 4.62903 20.8001 4.62903 21.5807V37.9034C4.62903 38.684 3.97581 39.3228 3.17742 39.3228H1M25.4216 26.8413L38.0579 34.1279C39.0903 34.7507 39.4496 36.0512 38.8744 37.0962C38.2502 38.2317 36.7768 38.6184 35.6554 37.9425L29.604 34.3107M35.3198 37.7437C36.3522 38.3665 36.5591 39.8852 35.9857 40.9302C35.3615 42.0657 33.8881 42.4524 32.7667 41.7765L27.6099 38.6894M31.1028 40.7758C32.1353 41.3986 32.3639 42.7753 31.7905 43.8203C31.1663 44.9558 29.6929 45.3426 28.5716 44.6666L25.6538 42.8907M42.371 22.2904H38.82C38.2937 22.2904 37.7766 22.1503 37.3266 21.8859L35.4214 20.7682C34.7446 20.3707 33.9698 20.1614 33.1804 20.1614H27.3196C26.2454 20.1614 25.1911 20.4523 24.2766 21.0041L17.2327 25.9524C16.7264 26.2575 16.6429 26.9442 17.0639 27.3558C18.7133 28.9685 21.2718 29.2755 23.2696 28.1027L27.129 25.8388M46 39.3228H43.8226C43.0206 39.3228 42.371 38.6876 42.371 37.9034V21.5807C42.371 20.7965 43.0206 20.1614 43.8226 20.1614H46M21.945 40.2507C22.9611 39.4984 24.4055 39.706 25.1748 40.7013L25.2909 40.8503C26.0603 41.8439 25.8589 43.2739 24.8409 44.0262L24.1424 44.5424C23.1262 45.2947 21.6637 45.0978 20.8944 44.1024C20.0615 43.0255 20.2974 41.4695 21.3988 40.6534M14.6343 33.7837L16.1004 32.7192C17.1165 31.9669 18.579 32.1639 19.3484 33.1592L19.4645 33.3082C20.2339 34.3018 20.0325 35.7318 19.0145 36.4841L15.244 39.2749C14.2278 40.0271 12.7653 39.8302 11.996 38.8349C11.1631 37.7579 11.3808 36.2108 12.4823 35.3965L12.9468 35.0363M18.8694 36.5923L19.4555 36.17C20.4716 35.4177 21.9341 35.6147 22.7034 36.61L22.8196 36.759C23.5889 37.7526 23.3875 39.1826 22.3696 39.9349L19.2341 42.2555C18.218 43.0078 16.7555 42.8108 15.9861 41.8155C15.1532 40.7386 15.371 39.1915 16.4724 38.3771L17.2944 37.7561M39.4677 17.3227V10.2258M39.4677 10.2258L30.0323 1H7.53225V17.3227M39.4677 10.2258L30.7581 10.2258C30.357 10.2258 30.0322 9.90826 30.0322 9.51616V6.67744M14.5363 33.86L12.7381 35.1907C11.722 35.9429 10.2595 35.746 9.49013 34.7507C8.65727 33.6737 8.87501 32.1266 9.97642 31.3123L11.6222 30.0952C12.6383 29.3429 14.1008 29.5398 14.8702 30.5352L14.9863 30.6842C15.7557 31.6777 15.5542 33.106 14.5363 33.86Z" stroke="#191916" stroke-width="2" stroke-miterlimit="10" stroke-linecap="round" stroke-linejoin="round"/>
      </symbol>

      <symbol width="14" height="17" viewBox="0 0 14 17" fill="none" xmlns="http://www.w3.org/2000/svg" id="location">
        <path fill-rule="evenodd" clip-rule="evenodd" d="M7 2.16675C5.67392 2.16675 4.40215 2.69353 3.46447 3.63121C2.52678 4.5689 2 5.84067 2 7.16675C2 9.09814 3.26574 11.021 4.72595 12.5623C5.43561 13.3114 6.14867 13.9258 6.68543 14.3532C6.79915 14.4438 6.9046 14.5257 7 14.5983C7.0954 14.5257 7.20085 14.4438 7.31457 14.3532C7.85133 13.9258 8.56439 13.3114 9.27405 12.5623C10.7343 11.021 12 9.09814 12 7.16675C12 5.84067 11.4732 4.5689 10.5355 3.63121C9.59785 2.69353 8.32608 2.16675 7 2.16675ZM7 15.8334C6.4453 16.6655 6.44479 16.6651 6.44479 16.6651L6.44245 16.6636L6.43741 16.6602L6.42092 16.649C6.40713 16.6397 6.38778 16.6264 6.36325 16.6094C6.31419 16.5755 6.24435 16.5264 6.1567 16.4631C5.98148 16.3366 5.73449 16.1526 5.43957 15.9178C4.85133 15.4494 4.06439 14.7721 3.27405 13.9378C1.73426 12.3125 0 9.90202 0 7.16675C0 5.31023 0.737498 3.52976 2.05025 2.217C3.36301 0.904246 5.14348 0.166748 7 0.166748C8.85652 0.166748 10.637 0.904246 11.9497 2.217C13.2625 3.52976 14 5.31023 14 7.16675C14 9.90202 12.2657 12.3125 10.726 13.9378C9.93561 14.7721 9.14867 15.4494 8.56043 15.9178C8.26551 16.1526 8.01852 16.3366 7.8433 16.4631C7.75565 16.5264 7.68581 16.5755 7.63675 16.6094C7.61222 16.6264 7.59287 16.6397 7.57908 16.649L7.56259 16.6602L7.55755 16.6636L7.55585 16.6647C7.55585 16.6647 7.5547 16.6655 7 15.8334ZM7 15.8334L7.5547 16.6655C7.2188 16.8894 6.78069 16.8891 6.44479 16.6651L7 15.8334Z" fill="white"/>
        <path d="M7 9.16675C8.10457 9.16675 9 8.27132 9 7.16675C9 6.06218 8.10457 5.16675 7 5.16675C5.89543 5.16675 5 6.06218 5 7.16675C5 8.27132 5.89543 9.16675 7 9.16675Z" fill="white"/>
      </symbol>

      <symbol width="13" height="12" viewBox="0 0 13 12" fill="none" xmlns="http://www.w3.org/2000/svg" id="arrow">
        <path d="M2.74121 6H9.74121" stroke="#191916" stroke-width="2" stroke-linecap="round" stroke-linejoin="round"/>
        <path d="M6.24121 2.5L9.74121 6L6.24121 9.5" stroke="#191916" stroke-width="2" stroke-linecap="round" stroke-linejoin="round"/>
      </symbol>

      <symbol width="26" height="26" viewBox="0 0 26 26" xmlns="http://www.w3.org/2000/svg" id="prev">
        <path d="M25 13H1M1 13L13 25M1 13L13 1" stroke-width="2" stroke-linecap="round" stroke-linejoin="round"/>
      </symbol>

      <symbol width="26" height="26" viewBox="0 0 26 26" xmlns="http://www.w3.org/2000/svg" id="next">
        <path d="M1 13H25M25 13L13 25M25 13L13 1" stroke-width="2" stroke-linecap="round" stroke-linejoin="round"/>
      </symbol>
      
      <symbol width="23" height="18" viewBox="0 0 23 18" xmlns="http://www.w3.org/2000/svg" id="mail">
        <path d="M21.2412 3C21.2412 1.9 20.3412 1 19.2412 1H3.24121C2.14121 1 1.24121 1.9 1.24121 3M21.2412 3V15C21.2412 16.1 20.3412 17 19.2412 17H3.24121C2.14121 17 1.24121 16.1 1.24121 15V3M21.2412 3L11.2412 10L1.24121 3" stroke="white" stroke-width="2" stroke-linecap="round" stroke-linejoin="round"/>
      </symbol>

      <symbol width="24" height="29" viewBox="0 0 24 29" xmlns="http://www.w3.org/2000/svg" id="price1">
        <path d="M7.87101 14.0701L9.90038 18.9009L14.6362 20.971C14.8655 21.07 14.9725 21.3418 14.8746 21.5757C14.8274 21.6894 14.7395 21.7745 14.6362 21.8189L9.90038 23.889L7.87101 28.7198C7.77402 28.9537 7.50755 29.0628 7.27824 28.963C7.16675 28.9149 7.08337 28.8252 7.03986 28.7198L5.01049 23.889L0.274676 21.8189C0.0453628 21.7199 -0.0615895 21.4481 0.0362991 21.2142C0.0834306 21.1005 0.171349 21.0154 0.274676 20.971L5.01049 18.9009L7.03986 14.0701C7.13684 13.8362 7.40332 13.7271 7.63263 13.8269C7.74411 13.875 7.8275 13.9647 7.87101 14.0701ZM20.0636 15.677L21.1621 18.2926L23.7253 19.4131C23.9546 19.5121 24.0616 19.7839 23.9637 20.0178C23.9166 20.1315 23.8287 20.2166 23.7253 20.261L21.1621 21.3815L20.0636 23.9971C19.9666 24.231 19.7001 24.3401 19.4708 24.2403C19.3593 24.1922 19.2759 24.1025 19.2324 23.9971L18.1339 21.3815L15.5698 20.261C15.3404 20.162 15.2335 19.8902 15.3314 19.6563C15.3785 19.5426 15.4664 19.4575 15.5698 19.4131L18.1339 18.2926L19.2324 15.677C19.3294 15.4431 19.5959 15.334 19.8252 15.4338C19.9367 15.4819 20.0201 15.5716 20.0636 15.677ZM14.8755 0.280188L17.4487 6.40543L23.4534 9.03027C23.6827 9.1292 23.7897 9.40102 23.6918 9.63494C23.6447 9.74866 23.5567 9.83372 23.4534 9.8781L17.4487 12.5029L14.8755 18.6282C14.7785 18.8621 14.512 18.9712 14.2827 18.8713C14.1712 18.8233 14.0878 18.7336 14.0443 18.6282L11.4711 12.5029L5.46639 9.8781C5.23708 9.77917 5.13013 9.50735 5.22802 9.27343C5.27515 9.15971 5.36307 9.07465 5.46639 9.03027L11.4711 6.40543L14.0443 0.280188C14.1413 0.0462732 14.4078 -0.0628255 14.6371 0.0370276C14.7486 0.0851049 14.832 0.174788 14.8755 0.280188Z" fill="#FFD600"/>
      </symbol>

      <symbol width="24" height="24" viewBox="0 0 24 24" xmlns="http://www.w3.org/2000/svg" id="price2">
        <path d="M19.4949 13.0713C23.1589 8.69979 24.0939 2.61004 23.9928 0.765435C23.9928 0.563285 23.8917 0.386405 23.7654 0.234793C23.639 0.10845 23.4621 0.00737564 23.2347 0.00737564C21.3901 -0.0936989 15.3003 0.815972 10.9541 4.47992L9.94331 4.10089C8.17449 3.44391 6.17826 3.97455 4.96535 5.41486L2.16051 8.72505C1.75621 9.17989 1.95836 9.91268 2.53954 10.1148L5.54653 11.2266C4.88954 12.3385 4.43471 13.2734 4.13148 13.9304C3.87879 14.461 4.00514 15.0927 4.43471 15.5223L8.47772 19.5906C8.88202 19.9949 9.51374 20.1212 10.0697 19.8685C10.7266 19.5653 11.6616 19.1105 12.7734 18.4535L13.86 21.4604C14.0621 22.0416 14.7949 22.2185 15.2498 21.8395L18.5347 19.0347C19.975 17.8218 20.5057 15.8255 19.8487 14.0567L19.4949 13.0713ZM17.5998 9.91268C16.6396 10.8729 15.0729 10.8729 14.0874 9.91268C13.1272 8.95247 13.1272 7.38582 14.0874 6.40034C15.0476 5.44013 16.6143 5.44013 17.5998 6.40034C18.56 7.38582 18.56 8.95247 17.5998 9.91268Z" fill="#FFD600"/>
        <path d="M6.73422 20.6266L4.91486 22.4207C4.5611 22.7745 4.5611 23.3809 4.91486 23.7347C5.26862 24.0884 5.87508 24.0884 6.22884 23.7347L8.0482 21.9153C8.40196 21.5616 8.40196 20.9551 8.0482 20.6014C7.66916 20.2476 7.08798 20.2476 6.73422 20.6266Z" fill="#FFD600"/>
        <path d="M5.69807 18.302C5.34431 17.9482 4.73785 17.9482 4.38409 18.302L1.50344 21.2079C1.14968 21.5616 1.14968 22.1681 1.50344 22.5218C1.85721 22.8756 2.46366 22.8756 2.81742 22.5218L5.69807 19.5907C6.0771 19.2369 6.0771 18.6557 5.69807 18.302Z" fill="#FFD600"/>
        <path d="M3.39866 17.291C3.75242 16.9373 3.75242 16.3308 3.39866 15.9771C3.0449 15.6233 2.43844 15.6233 2.08468 15.9771L0.265323 17.7964C-0.088441 18.1502 -0.088441 18.7566 0.265323 19.1104C0.619087 19.4641 1.22554 19.4641 1.5793 19.1104L3.39866 17.291Z" fill="#FFD600"/>
      </symbol>
      
      <symbol width="24" height="22" viewBox="0 0 24 22" xmlns="http://www.w3.org/2000/svg" id="price3">
      <path d="M19.6222 1.24L17.7233 11.0355C17.4612 12.3814 16.7624 13.5913 15.7452 14.4602C14.728 15.3291 13.4549 15.8038 12.1415 15.8038C10.828 15.8038 9.55496 15.3291 8.53775 14.4602C7.52055 13.5913 6.82173 12.3814 6.55959 11.0355L4.66076 1.24C4.63133 1.08964 4.6343 0.934308 4.66948 0.785304C4.70465 0.636299 4.77113 0.497365 4.8641 0.378605C4.95706 0.259846 5.07417 0.164246 5.20689 0.0987571C5.33962 0.0332686 5.48464 -0.000461845 5.6314 1.8583e-05H18.6487C18.7957 -0.000903526 18.941 0.0325023 19.0741 0.0977992C19.2072 0.163096 19.3247 0.258637 19.4179 0.377452C19.5112 0.496267 19.578 0.635359 19.6133 0.784581C19.6486 0.933803 19.6516 1.08939 19.6222 1.24ZM16.5093 19.9225H13.1362V17.8125C12.4792 17.9112 11.8122 17.9112 11.1553 17.8125V19.9284H7.78491C7.52223 19.9284 7.27031 20.0376 7.08456 20.2318C6.89882 20.4261 6.79447 20.6895 6.79447 20.9642C6.79447 21.2389 6.89882 21.5024 7.08456 21.6966C7.27031 21.8909 7.52223 22 7.78491 22H16.498C16.7607 22 17.0126 21.8909 17.1984 21.6966C17.3841 21.5024 17.4885 21.2389 17.4885 20.9642C17.4885 20.6895 17.3841 20.4261 17.1984 20.2318C17.0126 20.0376 16.7607 19.9284 16.498 19.9284L16.5093 19.9225ZM3.93632 7.93114C2.89632 6.68152 2.23621 5.136 2.04032 3.49208H3.07605L2.71949 1.64839C2.71949 1.57145 2.69685 1.49746 2.68836 1.42052H0.990451C0.860278 1.42013 0.731317 1.44665 0.610982 1.49857C0.490647 1.55048 0.381312 1.62676 0.289266 1.72302C0.19722 1.81928 0.124279 1.93362 0.0746366 2.05946C0.0249943 2.1853 -0.000369457 2.32017 4.06625e-06 2.4563C3.224e-05 4.20004 0.418752 5.91586 1.21775 7.44637C2.01676 8.97687 3.17046 10.2731 4.57304 11.216L3.93632 7.93114ZM23.018 1.42052H21.6031C21.6031 1.49746 21.5861 1.57145 21.5719 1.64839L21.2154 3.49208H21.9766C21.8017 4.92995 21.2721 6.29551 20.44 7.45468L19.7552 11.0059C21.0662 10.0458 22.1365 8.76931 22.8754 7.28461C23.6144 5.79991 24.0001 4.15078 23.9999 2.47701C24.0014 2.34089 23.9772 2.20579 23.9286 2.0795C23.88 1.95321 23.808 1.83822 23.7167 1.74113C23.6254 1.64405 23.5167 1.56679 23.3968 1.5138C23.2769 1.4608 23.1482 1.43313 23.018 1.43236V1.42052Z" fill="#FFD600"/>
      </symbol>









    
    



</svg>