<svg width="32" height="32" viewBox="0 0 32 32" fill="none" xmlns="http://www.w3.org/2000/svg">
<path d="M8.24166 16.047C9.8785 15.1625 11.7057 14.4242 13.4129 13.6822C16.3499 12.4669 19.2987 11.2726 22.2772 10.1607C22.8567 9.97125 23.8979 9.78601 24 10.6285C23.9441 11.8211 23.7141 13.0067 23.5564 14.1923C23.156 16.7995 22.6932 19.3978 22.2419 21.9964C22.0864 22.8621 20.9811 23.3101 20.2739 22.7562C18.5743 21.6299 16.8616 20.5146 15.1837 19.3622C14.634 18.8143 15.1437 18.0274 15.6346 17.6362C17.0345 16.2828 18.519 15.1329 19.8457 13.7095C20.2036 12.8617 19.1462 13.5762 18.7974 13.7952C16.881 15.0908 15.0115 16.4655 12.991 17.6041C11.9589 18.1615 10.756 17.6852 9.72439 17.3742C8.79944 16.9985 7.44402 16.6199 8.24156 16.0471L8.24166 16.047Z" fill="url(#paint0_linear_163_2979)"/>
<rect x="1" y="1" width="30" height="30" rx="5" stroke="#34B0DF" stroke-width="2"/>
<defs>
<linearGradient id="paint0_linear_163_2979" x1="13.7577" y1="3.98195" x2="5.79006" y2="19.8369" gradientUnits="userSpaceOnUse">
<stop stop-color="#34B0DF"/>
<stop offset="1" stop-color="#1E88D3"/>
</linearGradient>
</defs>
</svg>
