<svg width="32" height="32" viewBox="0 0 32 32" fill="none" xmlns="http://www.w3.org/2000/svg">
<rect x="1" y="1" width="30" height="30" rx="5" stroke="#3ADC57" stroke-width="2"/>
<path fill-rule="evenodd" clip-rule="evenodd" d="M19.6655 17.5881C19.4664 17.489 18.4878 17.0097 18.3053 16.9436C18.1228 16.8775 17.9902 16.8444 17.8575 17.0428C17.7247 17.2411 17.3433 17.6873 17.2271 17.8195C17.111 17.9517 16.9949 17.9683 16.7959 17.8691C16.5968 17.7699 15.9554 17.5607 15.1951 16.8858C14.6034 16.3605 14.2039 15.7118 14.0878 15.5134C13.9717 15.3151 14.0754 15.2079 14.1751 15.1091C14.2646 15.0204 14.3741 14.8778 14.4736 14.7621C14.5732 14.6464 14.6063 14.5638 14.6727 14.4316C14.739 14.2993 14.7059 14.1836 14.6561 14.0845C14.6063 13.9853 14.2083 13.0102 14.0424 12.6136C13.8808 12.2273 13.7167 12.2796 13.5945 12.2735C13.4785 12.2678 13.3457 12.2666 13.213 12.2666C13.0803 12.2666 12.8647 12.3162 12.6822 12.5144C12.4997 12.7128 11.9855 13.1921 11.9855 14.1671C11.9855 15.1422 12.6988 16.0842 12.7983 16.2164C12.8978 16.3487 14.2019 18.3496 16.1987 19.2077C16.6737 19.4118 17.0445 19.5337 17.3335 19.6251C17.8104 19.7758 18.2443 19.7545 18.5873 19.7035C18.9697 19.6467 19.765 19.2243 19.9309 18.7615C20.0967 18.2988 20.0967 17.9021 20.047 17.8195C19.9973 17.7369 19.8645 17.6873 19.6655 17.5881ZM16.0335 22.5235H16.0308C14.8426 22.523 13.6773 22.2054 12.6607 21.605L12.4188 21.4621L9.91277 22.1164L10.5817 19.6847L10.4242 19.4354C9.76142 18.3862 9.41137 17.1735 9.41186 15.9284C9.41332 12.295 12.3837 9.33904 16.0361 9.33904C17.8047 9.33972 19.4672 10.0261 20.7173 11.2716C21.9675 12.5172 22.6556 14.1729 22.6549 15.9337C22.6534 19.5673 19.6831 22.5235 16.0335 22.5235ZM21.6688 10.3252C20.1647 8.82655 18.1645 8.00084 16.0334 8C11.6424 8 8.06857 11.5564 8.06681 15.9279C8.06624 17.3252 8.43306 18.6893 9.13019 19.8915L8 24L12.2232 22.8975C13.3868 23.5291 14.6969 23.862 16.0302 23.8626H16.0335C20.4241 23.8626 23.9982 20.3057 24 15.9342C24.0008 13.8157 23.173 11.8237 21.6688 10.3252Z" fill="url(#paint0_linear_163_2976)"/>
<defs>
<linearGradient id="paint0_linear_163_2976" x1="7.99998" y1="8" x2="7.99998" y2="24" gradientUnits="userSpaceOnUse">
<stop stop-color="#61FD7D"/>
<stop offset="1" stop-color="#25CF43"/>
</linearGradient>
</defs>
</svg>
